<svg xmlns="http://www.w3.org/2000/svg" viewBox="0 0 720 440" role="img" aria-labelledby="title desc">
  <title id="title">Teethe — 无牙 · 獠牙是也</title>
  <desc id="desc">A quiet signal grows into an asymmetric fang, representing growth through difficulty.</desc>

  <rect x="1" y="1" width="718" height="438" rx="26" fill="#FAF9F6" stroke="#E4DBCC" stroke-width="2"/>
  <circle cx="60" cy="52" r="7" fill="#D97756"/>
  <text x="84" y="59" fill="#141413" opacity="0.64" font-family="-apple-system, BlinkMacSystemFont, 'Segoe UI', sans-serif" font-size="18" font-weight="650" letter-spacing="2.8">INDEPENDENT ARTIST · STUDENT</text>

  <g font-family="-apple-system, BlinkMacSystemFont, 'Segoe UI', 'Noto Sans SC', sans-serif">
    <text x="52" y="158" fill="#141413" font-size="112" font-weight="780" letter-spacing="-4">Teethe</text>
    <text x="58" y="218" fill="#141413" font-size="34" font-weight="650" letter-spacing="2">无牙 · 獠牙是也</text>
  </g>

  <g fill="none" stroke-linecap="round" stroke-linejoin="round">
    <path d="M60 303 C80 284 98 322 118 303 S156 284 176 303 S214 322 234 303 C243 295 250 295 258 303 C268 303 271 319 276 344 C280 362 285 371 291 371 C299 371 306 359 310 341 C316 315 319 303 330 303 C346 303 350 331 356 367 C362 400 371 417 382 417 C394 417 405 400 412 365 C418 329 423 303 438 303 C462 303 473 321 493 303 S532 285 548 303 C568 321 586 285 606 303 S644 322 660 303" stroke="#E4DBCC" stroke-width="5"/>
  </g>

  <path d="M260 285 C270 290 272 304 276 326 C280 344 285 353 291 353 C299 353 306 341 310 323 C315 300 319 287 330 285 Z" fill="#E4DBCC" opacity="0.70"/>
  <path d="M330 285 C346 285 350 313 356 349 C362 382 371 399 382 399 C394 399 405 382 412 347 C418 311 423 285 438 285 Z" fill="#D97756" opacity="0.12"/>

  <g fill="none" stroke-linecap="round" stroke-linejoin="round">
    <path d="M60 285 C80 266 98 304 118 285 S156 266 176 285 S214 304 234 285 C243 277 250 277 258 285 C268 285 271 301 276 326 C280 344 285 353 291 353 C299 353 306 341 310 323 C316 297 319 285 330 285" stroke="#141413" stroke-width="8"/>
    <path d="M330 285 C346 285 350 313 356 349 C362 382 371 399 382 399 C394 399 405 382 412 347 C418 311 423 285 438 285 C462 285 473 303 493 285 S532 267 548 285 C568 303 586 267 606 285 S644 304 660 285" stroke="#D97756" stroke-width="8"/>
  </g>

  <circle cx="330" cy="285" r="6" fill="#D97756"/>
</svg>
