<svg xmlns="http://www.w3.org/2000/svg" viewBox="0 0 1200 360" role="img" aria-labelledby="title desc">
  <title id="title">Teethe — 无牙 · 獠牙是也</title>
  <desc id="desc">A quiet signal grows into an asymmetric fang, representing a student and independent creator growing through difficulty.</desc>

  <rect x="1" y="1" width="1198" height="358" rx="28" fill="#FAF9F6" stroke="#E4DBCC" stroke-width="2"/>

  <g font-family="-apple-system, BlinkMacSystemFont, 'Segoe UI', 'Noto Sans SC', sans-serif">
    <circle cx="80" cy="71" r="6" fill="#D97756"/>
    <text x="100" y="78" fill="#141413" opacity="0.64" font-size="18" font-weight="650" letter-spacing="2.8">INDEPENDENT ARTIST · STUDENT</text>
    <text x="74" y="190" fill="#141413" font-size="104" font-weight="780" letter-spacing="-4">Teethe</text>
    <text x="80" y="250" fill="#141413" font-size="34" font-weight="650" letter-spacing="2">无牙 · 獠牙是也</text>
  </g>

  <g fill="none" stroke-linecap="round" stroke-linejoin="round">
    <path d="M650 198 C670 179 688 217 708 198 S746 179 766 198 S804 217 824 198 C833 190 840 190 848 198 C858 198 861 214 866 239 C870 257 875 266 881 266 C889 266 896 254 900 236 C906 210 909 198 920 198 C936 198 940 226 946 262 C952 300 961 326 972 326 C984 326 995 300 1002 260 C1008 224 1013 198 1028 198 C1052 198 1063 216 1083 198 S1122 180 1138 198" stroke="#E4DBCC" stroke-width="5"/>
  </g>

  <path d="M850 176 C860 181 862 195 866 217 C870 235 875 244 881 244 C889 244 896 232 900 214 C905 191 909 178 920 176 Z" fill="#E4DBCC" opacity="0.70"/>
  <path d="M920 176 C936 176 940 204 946 240 C952 278 961 304 972 304 C984 304 995 278 1002 238 C1008 202 1013 176 1028 176 Z" fill="#D97756" opacity="0.12"/>

  <g fill="none" stroke-linecap="round" stroke-linejoin="round">
    <path d="M650 176 C670 157 688 195 708 176 S746 157 766 176 S804 195 824 176 C833 168 840 168 848 176 C858 176 861 192 866 217 C870 235 875 244 881 244 C889 244 896 232 900 214 C906 188 909 176 920 176" stroke="#141413" stroke-width="8"/>
    <path d="M920 176 C936 176 940 204 946 240 C952 278 961 304 972 304 C984 304 995 278 1002 238 C1008 202 1013 176 1028 176 C1052 176 1063 194 1083 176 S1122 158 1138 176" stroke="#D97756" stroke-width="8"/>
  </g>

  <circle cx="920" cy="176" r="6" fill="#D97756"/>
</svg>
